<svg width="212" height="116" viewBox="0 0 212 116" fill="none" xmlns="http://www.w3.org/2000/svg">
<g filter="url(#filter0_d_40_111)">
<rect width="208" height="112" rx="16" fill="#F2E1D1" shape-rendering="crispEdges"/>
<rect x="1" y="1" width="206" height="110" rx="15" stroke="#FA5C09" stroke-width="2" shape-rendering="crispEdges"/>
<path d="M51.3846 48.8974H23.9077L21.7385 50.3333L19.5692 53.2051L18.1231 59.6667V82.641L21.0154 85.5128L26.0769 86.9487L39.0923 88.3846L55 89.8205L54.3448 92.4227C54.3004 92.5991 54.2087 92.76 54.0797 92.8882L51.4872 95.4622C51.4192 95.5298 51.3417 95.5872 51.2573 95.6328L48.9443 96.8802C48.7984 96.9588 48.6353 97 48.4696 97H14.0192C13.8649 97 13.7127 96.9643 13.5745 96.8957L11.2637 95.7485C11.0259 95.6304 10.8448 95.4227 10.7604 95.171L9.44615 91.2564L8.052 87.1036C8.01756 87.001 8 86.8935 8 86.7853V59.7906C8 59.7083 8.01017 59.6263 8.03027 59.5465L9.44615 53.9231L10.1496 51.1294C10.1627 51.0774 10.1799 51.0265 10.2012 50.9773L12.3385 46.0256L15.2308 41H51.3846V48.8974Z" fill="#FD5022"/>
<path d="M153.279 41L150 42.6716V91.1493L151.639 92.8209L154.918 95.3284L160.656 97H190.984L197.541 92.8209L200 88.6418V45.1791L198.361 42.6716H189.344V77.7761L186.066 81.9552L180.328 84.4627H163.115L159.836 75.2687V57.7164L161.475 47.6866V41H153.279Z" fill="#FD5022"/>
<path d="M121.879 77.2056H108V84.1019L109.735 90.1362L112.337 94.4464L115.807 97.0325H131.421L134.891 95.3084L138.361 91.8603L141.831 86.688V41H129.686L128.819 42.7241V64.275L131.421 66.8611V79.7917L129.686 83.2399L126.217 85.826H122.747L121.879 83.2399V77.2056Z" fill="#FD5022"/>
<path d="M24.44 37H17.12C14.62 37 12.76 36.5 11.54 35.5C10.34 34.5 9.74 32.96 9.74 30.88V21.55C9.74 19.47 10.34 17.93 11.54 16.93C12.76 15.91 14.62 15.4 17.12 15.4H24.44C24.82 15.4 25.09 15.49 25.25 15.67C25.43 15.83 25.52 16.1 25.52 16.48V20.11C25.52 20.49 25.43 20.77 25.25 20.95C25.09 21.11 24.82 21.19 24.44 21.19H18.41C17.79 21.19 17.33 21.32 17.03 21.58C16.73 21.82 16.58 22.19 16.58 22.69V29.83C16.58 30.33 16.73 30.7 17.03 30.94C17.33 31.16 17.79 31.27 18.41 31.27H24.44C24.82 31.27 25.09 31.36 25.25 31.54C25.43 31.7 25.52 31.97 25.52 32.35V35.92C25.52 36.3 25.43 36.58 25.25 36.76C25.09 36.92 24.82 37 24.44 37ZM29.5079 37C29.1279 37 28.8479 36.92 28.6679 36.76C28.5079 36.58 28.4279 36.3 28.4279 35.92V32.35C28.4279 31.97 28.5079 31.7 28.6679 31.54C28.8479 31.36 29.1279 31.27 29.5079 31.27H32.4779V21.19H29.5079C29.1279 21.19 28.8479 21.11 28.6679 20.95C28.5079 20.77 28.4279 20.49 28.4279 20.11V16.48C28.4279 16.1 28.5079 15.83 28.6679 15.67C28.8479 15.49 29.1279 15.4 29.5079 15.4H42.2879C42.6679 15.4 42.9379 15.49 43.0979 15.67C43.2779 15.83 43.3679 16.1 43.3679 16.48V20.11C43.3679 20.49 43.2779 20.77 43.0979 20.95C42.9379 21.11 42.6679 21.19 42.2879 21.19H39.3779V31.27H42.2879C42.6679 31.27 42.9379 31.36 43.0979 31.54C43.2779 31.7 43.3679 31.97 43.3679 32.35V35.92C43.3679 36.3 43.2779 36.58 43.0979 36.76C42.9379 36.92 42.6679 37 42.2879 37H29.5079ZM53.852 20.8V24.64H56.102C56.622 24.64 56.972 24.51 57.152 24.25C57.332 23.97 57.422 23.63 57.422 23.23V22.21C57.422 21.81 57.332 21.48 57.152 21.22C56.972 20.94 56.622 20.8 56.102 20.8H53.852ZM52.772 37H48.152C47.772 37 47.492 36.92 47.312 36.76C47.152 36.58 47.072 36.3 47.072 35.92V16.48C47.072 16.1 47.152 15.83 47.312 15.67C47.492 15.49 47.772 15.4 48.152 15.4H58.142C60.382 15.4 61.922 15.87 62.762 16.81C63.622 17.73 64.052 18.93 64.052 20.41V21.79C64.052 22.63 63.922 23.35 63.662 23.95C63.422 24.53 62.992 24.95 62.372 25.21C63.452 25.33 64.322 25.77 64.982 26.53C65.662 27.29 66.002 28.3 66.002 29.56V35.92C66.002 36.3 65.912 36.58 65.732 36.76C65.572 36.92 65.302 37 64.922 37H60.272C59.892 37 59.612 36.92 59.432 36.76C59.272 36.58 59.192 36.3 59.192 35.92V31.33C59.192 30.89 59.102 30.57 58.922 30.37C58.762 30.15 58.472 30.04 58.052 30.04H53.852V35.92C53.852 36.3 53.762 36.58 53.582 36.76C53.422 36.92 53.152 37 52.772 37ZM83.5904 37H76.2704C73.7704 37 71.9104 36.5 70.6904 35.5C69.4904 34.5 68.8904 32.96 68.8904 30.88V21.55C68.8904 19.47 69.4904 17.93 70.6904 16.93C71.9104 15.91 73.7704 15.4 76.2704 15.4H83.5904C83.9704 15.4 84.2404 15.49 84.4004 15.67C84.5804 15.83 84.6704 16.1 84.6704 16.48V20.11C84.6704 20.49 84.5804 20.77 84.4004 20.95C84.2404 21.11 83.9704 21.19 83.5904 21.19H77.5604C76.9404 21.19 76.4804 21.32 76.1804 21.58C75.8804 21.82 75.7304 22.19 75.7304 22.69V29.83C75.7304 30.33 75.8804 30.7 76.1804 30.94C76.4804 31.16 76.9404 31.27 77.5604 31.27H83.5904C83.9704 31.27 84.2404 31.36 84.4004 31.54C84.5804 31.7 84.6704 31.97 84.6704 32.35V35.92C84.6704 36.3 84.5804 36.58 84.4004 36.76C84.2404 36.92 83.9704 37 83.5904 37ZM106.448 31.33C106.448 32.25 106.308 33.09 106.028 33.85C105.768 34.59 105.288 35.23 104.588 35.77C103.908 36.29 102.968 36.7 101.768 37C100.568 37.3 99.0383 37.45 97.1783 37.45C95.3183 37.45 93.7883 37.3 92.5883 37C91.3883 36.7 90.4383 36.29 89.7383 35.77C89.0583 35.23 88.5783 34.59 88.2983 33.85C88.0383 33.09 87.9083 32.25 87.9083 31.33V16.48C87.9083 16.1 87.9883 15.83 88.1483 15.67C88.3283 15.49 88.6083 15.4 88.9883 15.4H93.6983C94.0783 15.4 94.3483 15.49 94.5083 15.67C94.6883 15.83 94.7783 16.1 94.7783 16.48V30.16C94.7783 30.56 94.9283 30.9 95.2283 31.18C95.5283 31.44 96.1983 31.57 97.2383 31.57C98.2983 31.57 98.9783 31.44 99.2783 31.18C99.5783 30.9 99.7283 30.56 99.7283 30.16V16.48C99.7283 16.1 99.8083 15.83 99.9683 15.67C100.148 15.49 100.428 15.4 100.808 15.4H105.368C105.748 15.4 106.018 15.49 106.178 15.67C106.358 15.83 106.448 16.1 106.448 16.48V31.33ZM111.041 37C110.661 37 110.381 36.92 110.201 36.76C110.041 36.58 109.961 36.3 109.961 35.92V32.35C109.961 31.97 110.041 31.7 110.201 31.54C110.381 31.36 110.661 31.27 111.041 31.27H114.011V21.19H111.041C110.661 21.19 110.381 21.11 110.201 20.95C110.041 20.77 109.961 20.49 109.961 20.11V16.48C109.961 16.1 110.041 15.83 110.201 15.67C110.381 15.49 110.661 15.4 111.041 15.4H123.821C124.201 15.4 124.471 15.49 124.631 15.67C124.811 15.83 124.901 16.1 124.901 16.48V20.11C124.901 20.49 124.811 20.77 124.631 20.95C124.471 21.11 124.201 21.19 123.821 21.19H120.911V31.27H123.821C124.201 31.27 124.471 31.36 124.631 31.54C124.811 31.7 124.901 31.97 124.901 32.35V35.92C124.901 36.3 124.811 36.58 124.631 36.76C124.471 36.92 124.201 37 123.821 37H111.041ZM138.805 37H133.945C133.565 37 133.285 36.92 133.105 36.76C132.945 36.58 132.865 36.3 132.865 35.92V21.19H128.455C128.075 21.19 127.795 21.11 127.615 20.95C127.455 20.77 127.375 20.49 127.375 20.11V16.48C127.375 16.1 127.455 15.83 127.615 15.67C127.795 15.49 128.075 15.4 128.455 15.4H144.295C144.675 15.4 144.945 15.49 145.105 15.67C145.285 15.83 145.375 16.1 145.375 16.48V20.11C145.375 20.49 145.285 20.77 145.105 20.95C144.945 21.11 144.675 21.19 144.295 21.19H139.885V35.92C139.885 36.3 139.795 36.58 139.615 36.76C139.455 36.92 139.185 37 138.805 37ZM166.446 31.33C166.446 32.25 166.306 33.09 166.026 33.85C165.766 34.59 165.286 35.23 164.586 35.77C163.906 36.29 162.956 36.7 161.736 37C160.536 37.3 159.006 37.45 157.146 37.45C155.286 37.45 153.746 37.3 152.526 37C151.306 36.7 150.346 36.29 149.646 35.77C148.966 35.23 148.486 34.59 148.206 33.85C147.946 33.09 147.816 32.25 147.816 31.33V21.1C147.816 20.18 147.946 19.35 148.206 18.61C148.486 17.85 148.966 17.2 149.646 16.66C150.346 16.12 151.306 15.7 152.526 15.4C153.746 15.1 155.286 14.95 157.146 14.95C159.006 14.95 160.536 15.1 161.736 15.4C162.956 15.7 163.906 16.12 164.586 16.66C165.286 17.2 165.766 17.85 166.026 18.61C166.306 19.35 166.446 20.18 166.446 21.1V31.33ZM154.626 30.25C154.626 30.65 154.776 30.99 155.076 31.27C155.376 31.53 156.066 31.66 157.146 31.66C158.226 31.66 158.916 31.53 159.216 31.27C159.516 30.99 159.666 30.65 159.666 30.25V22.18C159.666 21.8 159.516 21.48 159.216 21.22C158.916 20.94 158.226 20.8 157.146 20.8C156.066 20.8 155.376 20.94 155.076 21.22C154.776 21.48 154.626 21.8 154.626 22.18V30.25Z" fill="#398010"/>
<path d="M89.3778 46.2942C85.0621 43.7845 74.9872 40.3946 69.2124 46.913C66.5059 49.9679 65.5124 53.5842 65.3991 56.9479C65.2439 60.1236 64.5863 67.6588 63.1976 72.3932C61.8089 77.1277 61.8404 85.1068 62.0298 88.5046C62.2708 90.6977 63.5375 94.2385 66.612 97.0441C75.417 102.127 85.6281 90.1136 89.633 83.4716C102.561 62.6613 95.9072 50.693 90.9646 47.3101C90.8989 47.2736 90.8341 47.237 90.7703 47.2003C90.2453 46.8987 89.7821 46.5933 89.3778 46.2942Z" fill="#F3380C"/>
<path d="M76.6648 101.215C85.4729 102.06 95.0231 89.3202 100.671 79.4065C102.46 77.1457 107.637 72.2369 109.364 68.0768C111.674 62.5072 106.801 51.1289 98.2694 49.7228C95.1146 49.2029 92.7134 48.2831 90.9646 47.3101C95.9072 50.693 102.561 62.6613 89.633 83.4716C85.6281 90.1136 75.417 102.127 66.612 97.0441C68.8773 99.1114 72.124 100.779 76.6648 101.215Z" fill="#DD2401"/>
<path d="M92.5223 35.2469C85.1894 35.8081 86.0188 41.4787 87.3501 44.2439C87.6507 44.7566 88.3082 45.5031 89.3778 46.2942C89.7821 46.5933 90.2453 46.8987 90.7703 47.2003C96.4584 47.173 106.738 43.6334 102.352 29.6927C101.229 28.9744 99.6582 28.2052 98.1301 28.0904C95.8971 27.9225 95.381 29.3205 95.4021 30.0405C97.0355 34.8909 94.1628 35.5325 92.5223 35.2469Z" fill="#754B29"/>
<path d="M105.776 41.4575C107.56 36.6971 105.049 32.2257 103.571 30.5851C103.292 30.3446 102.87 30.0241 102.352 29.6927C106.738 43.6334 96.4584 47.173 90.7703 47.2003C90.8341 47.237 90.8989 47.2736 90.9646 47.3101C92.7134 48.2831 95.1146 49.2029 98.2694 49.7228C100.373 48.6991 103.547 47.4081 105.776 41.4575Z" fill="#633B1D"/>
</g>
<defs>
<filter id="filter0_d_40_111" x="0" y="0" width="212" height="116" filterUnits="userSpaceOnUse" color-interpolation-filters="sRGB">
<feFlood flood-opacity="0" result="BackgroundImageFix"/>
<feColorMatrix in="SourceAlpha" type="matrix" values="0 0 0 0 0 0 0 0 0 0 0 0 0 0 0 0 0 0 127 0" result="hardAlpha"/>
<feOffset dx="4" dy="4"/>
<feComposite in2="hardAlpha" operator="out"/>
<feColorMatrix type="matrix" values="0 0 0 0 0 0 0 0 0 0 0 0 0 0 0 0 0 0 0.24 0"/>
<feBlend mode="normal" in2="BackgroundImageFix" result="effect1_dropShadow_40_111"/>
<feBlend mode="normal" in="SourceGraphic" in2="effect1_dropShadow_40_111" result="shape"/>
</filter>
</defs>
</svg>
