<svg width="18" height="21" viewBox="0 0 18 21" fill="none" xmlns="http://www.w3.org/2000/svg">
<path d="M9.17857 1.29089V0.324349L9.46429 0.25H9.82143L10.0357 0.473048V0.770446L9.75 1.21654L9.89286 1.58829L10.3929 2.10874L11.4643 2.03439H12.3214C12.7024 2.10874 13.4786 2.25743 13.5357 2.25743C13.5929 2.25743 14.1786 2.55483 14.4643 2.70353L15.3214 3.37268L15.9643 4.04182L16.3929 4.19052L16.8929 4.56227L17.25 4.78532L16.8929 5.15706L16.3929 5.30576H14.6786L14.0357 5.08271L13.25 4.93401L12.5357 4.71097L11.75 4.19052L11.1071 3.59572L10.5357 3.07528L10.0357 2.33178L9.82143 1.88569H9.60714L9.46429 2.03439L9.39286 2.77788L9.32143 4.04182L9.39286 4.41357L9.75 5.08271L10.1786 5.67751L10.5357 6.2723H11.3214L12.1071 6.49535L12.8929 7.1645L13.3929 7.75929L13.8214 8.57714L14.25 9.46933L14.8214 10.3615L15.3214 11.3281L15.6786 12.0716V13.3355L15.4643 14.1533L14.8929 14.8968L14.25 15.1942H13.75L13.3929 14.8968L13.0357 15.0455L12.5357 15.2686H11.6786L10.9643 15.4916L10.6786 15.6403L10.3929 15.9377L9.82143 16.0121L9.32143 15.7147L8.89286 15.3429L8.60714 14.9712L8.75 14.079V13.3355V12.2203L8.82143 11.3281L8.96429 10.5846L9.03572 10.0641L9.10714 9.24628L8.96429 8.42844L8.82143 8.05669L8.43144 7.68494L8.53572 7.38755L8.67857 7.0158L9.17857 6.5697L9.75 6.2723L9.39286 5.82621L9.03572 5.00836L8.67857 4.85967L8.46429 5.45446L8.10714 6.12361L7.82143 6.5697L7.75 7.1645L7.89286 7.3132L8.25 7.75929L8.53572 8.05669L8.82143 8.80019L8.89286 9.39498L8.82143 10.1385L8.67857 10.882L8.46429 11.6998L8.53572 12.6664V13.2612L8.46429 13.7816L8.39286 14.6738V15.789L8.32143 16.0121L7.89286 16.5325L7.17857 17.1273L6.53571 17.4247L6.03571 17.3504L5.60714 17.1273L5.75 17.276L5.82143 17.7221L5.46429 18.3169L5.03571 18.3913L4.67857 18.0195L4.60714 17.7965L4.32143 17.8708V18.2426L4.53571 18.4656L4.82143 18.8374L4.67857 19.3578L4.32143 19.9526L3.53571 20.25L2.67857 19.9526L1.96429 19.2835L1.82143 18.3169L1.89286 17.3504L2.03571 16.5325L2.39286 16.1608L2.67857 15.789H3.03571H3.53571L3.82143 15.9377L4.25 16.4582L4.53571 16.7556L4.89286 16.9786L5.17857 17.1273L5.46429 17.2017L5.60714 17.1273L5.46429 17.053L5.03571 16.9043L4.67857 16.5325L4.39286 16.1608L3.82143 15.7147L3.46429 15.4916H2.96429L2.67857 15.566L2.25 15.789L1.82143 15.6403L1.25 15.0455L1.10714 14.0046V13.1125L1.39286 12.4433L1.82143 11.7742L2.53571 11.105L3.32143 10.2872L3.89286 9.61803L4.46429 8.65149L5.10714 7.90799L5.67857 7.38755L6.10714 7.1645L6.89286 7.0158L6.96429 6.79275L7.25 6.12361L7.67857 5.52881L7.89286 5.08271V4.78532L7.75 4.71097L7.32143 5.15706L6.89286 5.67751L6.53571 6.2723L6.39286 6.79275L6.25 6.94145L5.75 7.09015L5.25 7.4619L5.39286 6.421L5.17857 6.7184L4.96429 7.68494L4.25 8.50279L3.17857 9.98978L1.89286 11.4024L0.25 12.6664V12.2946L0.392857 11.5511L1.39286 9.24628L2.67857 7.53625L4.46429 6.04926L5.75 5.23141L6.82143 4.85967L8.53572 3.44703V2.48048L8.82143 2.03439L9.17857 1.29089Z" fill="#C84B24"/>
<path d="M10.8214 15.8634L10.6071 16.0864V16.3095V17.053L10.8929 17.6478L11.3929 18.4656L12.0357 18.9117L12.8214 18.9861L13.4643 18.763L13.8929 18.3169L14.0357 17.9452V17.5734L13.8929 17.2017L13.6786 16.9786H13.3929L13.1786 17.3504L12.9643 17.2017L13.0357 16.9043L13.4643 16.5325L13.75 16.3095L13.8214 15.9377L13.75 15.4916L13.4643 15.1942C13.369 15.219 13.1643 15.2686 13.1071 15.2686C13.05 15.2686 12.8452 15.3677 12.75 15.4173L12.25 15.4916L11.5357 15.566L11.25 15.8634H10.8214Z" fill="#C84B24"/>
<path d="M5.60714 17.1273L5.75 17.276L5.82143 17.7221L5.46429 18.3169L5.03571 18.3913L4.67857 18.0195L4.60714 17.7965L4.32143 17.8708V18.2426L4.53571 18.4656L4.82143 18.8374L4.67857 19.3578L4.32143 19.9526L3.53571 20.25L2.67857 19.9526L1.96429 19.2835L1.82143 18.3169L1.89286 17.3504L2.03571 16.5325L2.39286 16.1608L2.67857 15.789H3.03571H3.53571L3.82143 15.9377L4.25 16.4582L4.53571 16.7556L4.89286 16.9786L5.17857 17.1273L5.46429 17.2017L5.60714 17.1273ZM5.60714 17.1273L6.03571 17.3504L6.53571 17.4247L7.17857 17.1273L7.89286 16.5325L8.32143 16.0121L8.39286 15.789V14.6738L8.46429 13.7816L8.53571 13.2612V12.6664L8.46429 11.6998L8.67857 10.882L8.82143 10.1385L8.89286 9.39498L8.82143 8.80019L8.53571 8.05669L8.25 7.75929L7.89286 7.3132L7.75 7.1645L7.82143 6.5697L8.10714 6.12361L8.46429 5.45446L8.67857 4.85967L9.03571 5.00836L9.39286 5.82621L9.75 6.2723L9.17857 6.5697L8.67857 7.0158L8.53571 7.38755L8.43144 7.68494L8.82143 8.05669L8.96429 8.42844L9.10714 9.24628L9.03571 10.0641L8.96429 10.5846L8.82143 11.3281L8.75 12.2203V13.3355V14.079L8.60714 14.9712L8.89286 15.3429L9.32143 15.7147L9.82143 16.0121L10.3929 15.9377L10.6786 15.6403L10.9643 15.4916L11.6786 15.2686H12.5357L13.0357 15.0455L13.3929 14.8968L13.75 15.1942H14.25L14.8929 14.8968L15.4643 14.1533L15.6786 13.3355V12.0716L15.3214 11.3281L14.8214 10.3615L14.25 9.46933L13.8214 8.57714L13.3929 7.75929L12.8929 7.1645L12.1071 6.49535L11.3214 6.2723H10.5357L10.1786 5.67751L9.75 5.08271L9.39286 4.41357L9.32143 4.04182L9.39286 2.77788L9.46429 2.03439L9.60714 1.88569H9.82143L10.0357 2.33178L10.5357 3.07528L11.1071 3.59572L11.75 4.19052L12.5357 4.71097L13.25 4.93401L14.0357 5.08271L14.6786 5.30576H16.3929L16.8929 5.15706L17.25 4.78532L16.8929 4.56227L16.3929 4.19052L15.9643 4.04182L15.3214 3.37268L14.4643 2.70353C14.1786 2.55483 13.5929 2.25743 13.5357 2.25743C13.4786 2.25743 12.7024 2.10874 12.3214 2.03439H11.4643L10.3929 2.10874L9.89286 1.58829L9.75 1.21654L10.0357 0.770446V0.473048L9.82143 0.25H9.46429L9.17857 0.324349V1.29089L8.82143 2.03439L8.53571 2.48048V3.44703L6.82143 4.85967L5.75 5.23141L4.46429 6.04926L2.67857 7.53625L1.39286 9.24628L0.392857 11.5511L0.25 12.2946V12.6664L1.89286 11.4024L3.17857 9.98978L4.25 8.50279L4.96429 7.68494L5.17857 6.7184L5.39286 6.421L5.25 7.4619L5.75 7.09015L6.25 6.94145L6.39286 6.79275L6.53571 6.2723L6.89286 5.67751L7.32143 5.15706L7.75 4.71097L7.89286 4.78532V5.08271L7.67857 5.52881L7.25 6.12361L6.96429 6.79275L6.89286 7.0158L6.10714 7.1645L5.67857 7.38755L5.10714 7.90799L4.46429 8.65149L3.89286 9.61803L3.32143 10.2872L2.53571 11.105L1.82143 11.7742L1.39286 12.4433L1.10714 13.1125V14.0046L1.25 15.0455L1.82143 15.6403L2.25 15.789L2.67857 15.566L2.96429 15.4916H3.46429L3.82143 15.7147L4.39286 16.1608L4.67857 16.5325L5.03571 16.9043L5.46429 17.053L5.60714 17.1273ZM10.6071 16.0864L10.8214 15.8634H11.25L11.5357 15.566L12.25 15.4916L12.75 15.4173C12.8452 15.3677 13.05 15.2686 13.1071 15.2686C13.1643 15.2686 13.369 15.219 13.4643 15.1942L13.75 15.4916L13.8214 15.9377L13.75 16.3095L13.4643 16.5325L13.0357 16.9043L12.9643 17.2017L13.1786 17.3504L13.3929 16.9786H13.6786L13.8929 17.2017L14.0357 17.5734V17.9452L13.8929 18.3169L13.4643 18.763L12.8214 18.9861L12.0357 18.9117L11.3929 18.4656L10.8929 17.6478L10.6071 17.053V16.3095V16.0864Z" stroke="#1A1613" stroke-width="0.5"/>
</svg>
